<svg width="150" height="150" viewBox="0 0 150 150" fill="none" xmlns="http://www.w3.org/2000/svg">
    <path fill-rule="evenodd" clip-rule="evenodd"
        d="M75.3573 10.9375C89.0492 10.9374 99.8035 10.9373 108.2 12.0662C116.804 13.223 123.631 15.642 128.994 21.0057C134.358 26.3694 136.777 33.196 137.934 41.8001C139.063 50.1964 139.063 60.9505 139.062 74.6421V74.6427V75.3573V75.3579C139.063 89.0495 139.063 99.8036 137.934 108.2C136.777 116.804 134.358 123.631 128.994 128.994C123.631 134.358 116.804 136.777 108.2 137.934C99.8036 139.063 89.0495 139.063 75.3579 139.062H75.3573H74.6427H74.6421C60.9505 139.063 50.1964 139.063 41.8001 137.934C33.196 136.777 26.3694 134.358 21.0057 128.994C15.642 123.631 13.223 116.804 12.0662 108.2C10.9374 99.8035 10.9374 89.0492 10.9375 75.3573V74.6427C10.9374 60.9507 10.9374 50.1965 12.0662 41.8001C13.223 33.196 15.642 26.3694 21.0057 21.0057C26.3694 15.642 33.196 13.223 41.8001 12.0662C50.1965 10.9373 60.9508 10.9374 74.6427 10.9375H75.3573ZM103.125 75C103.125 90.533 90.533 103.125 75 103.125C59.467 103.125 46.875 90.533 46.875 75C46.875 59.467 59.467 46.875 75 46.875C90.533 46.875 103.125 59.467 103.125 75ZM109.452 46.875C112.888 46.875 115.674 44.0768 115.674 40.625C115.674 37.1732 112.888 34.375 109.452 34.375H109.396C105.96 34.375 103.174 37.1732 103.174 40.625C103.174 44.0768 105.96 46.875 109.396 46.875H109.452Z"
        fill="#EDEDED" />
</svg>
    