<svg width="150" height="150" viewBox="0 0 150 150" fill="none" xmlns="http://www.w3.org/2000/svg">
    <path d="M41.75 56.25H17.625C16.6822 56.25 16.2108 56.25 15.9179 56.5429C15.625 56.8358 15.625 57.3072 15.625 58.25V132.375C15.625 133.318 15.625 133.789 15.9179 134.082C16.2108 134.375 16.6822 134.375 17.625 134.375H41.75C42.6928 134.375 43.1642 134.375 43.4571 134.082C43.75 133.789 43.75 133.318 43.75 132.375V58.25C43.75 57.3072 43.75 56.8358 43.4571 56.5429C43.1642 56.25 42.6928 56.25 41.75 56.25Z" fill="#EDEDED"/>
    <path d="M43.75 29.6875C43.75 37.454 37.454 43.75 29.6875 43.75C21.921 43.75 15.625 37.454 15.625 29.6875C15.625 21.921 21.921 15.625 29.6875 15.625C37.454 15.625 43.75 21.921 43.75 29.6875Z" fill="#EDEDED"/>
    <path d="M73.9128 56.25H68.75C62.8574 56.25 59.9112 56.25 58.0806 58.0806C56.25 59.9112 56.25 62.8574 56.25 68.75V121.875C56.25 127.768 56.25 130.714 58.0806 132.544C59.9112 134.375 62.8574 134.375 68.75 134.375H71.8751C77.7676 134.375 80.7139 134.375 82.5445 132.544C84.375 130.714 84.3751 127.768 84.3751 121.875L84.3753 100.001C84.3753 89.6454 87.6757 81.2507 97.4242 81.2507C102.298 81.2507 106.25 85.4481 106.25 90.6257V118.751C106.25 124.643 106.25 127.59 108.08 129.42C109.911 131.251 112.857 131.251 118.75 131.251H121.867C127.758 131.251 130.704 131.251 132.534 129.421C134.365 127.591 134.366 124.645 134.367 118.754L134.375 84.3765C134.375 68.8435 119.602 56.2515 104.98 56.2515C96.6558 56.2515 89.2291 60.3318 84.3753 66.7122C84.3752 62.7746 84.3752 60.8058 83.5197 59.3437C82.978 58.4179 82.2071 57.6471 81.2813 57.1054C79.8192 56.25 77.8504 56.25 73.9128 56.25Z" fill="#EDEDED"/>
    </svg>
    