<svg width="170" height="170" viewBox="0 0 170 170" fill="none" xmlns="http://www.w3.org/2000/svg">
    <path
        d="M16.6947 19.7004C17.8754 17.3912 20.2503 15.9382 22.8438 15.9382L57.375 15.9382C59.5926 15.9382 61.6754 17.0032 62.9738 18.8009L95.876 64.3579L142.273 17.961C144.97 15.264 149.343 15.264 152.04 17.961C154.737 20.6581 154.737 25.0309 152.04 27.7279L104.068 75.7001L152.755 143.113C154.273 145.216 154.486 147.992 153.305 150.301C152.125 152.61 149.75 154.063 147.156 154.063H112.625C110.407 154.063 108.325 152.998 107.026 151.201L74.124 105.644L27.7272 152.04C25.0302 154.738 20.6574 154.738 17.9603 152.04C15.2633 149.343 15.2633 144.971 17.9603 142.274L65.9324 94.3014L17.245 26.888C15.7266 24.7855 15.514 22.0095 16.6947 19.7004Z"
        fill="#70666c" />
</svg>
    