<svg width="146" height="146" viewBox="0 0 146 146" fill="none" xmlns="http://www.w3.org/2000/svg">
    <path fill-rule="evenodd" clip-rule="evenodd"
        d="M73.4052 0.395828C88.9227 0.395737 101.111 0.39566 110.627 1.67503C120.378 2.98607 128.115 5.72757 134.194 11.8065C140.273 17.8854 143.014 25.6222 144.325 35.3735C145.605 44.8892 145.604 57.077 145.604 72.594V72.5942V72.5944V72.5951V73.4049V73.4056V73.4058V73.406C145.604 88.923 145.605 101.111 144.325 110.627C143.014 120.378 140.273 128.115 134.194 134.194C128.115 140.272 120.378 143.014 110.627 144.325C101.111 145.604 88.9232 145.604 73.4061 145.604H73.406H73.4058H73.4051H72.5952H72.5945H72.5944H72.5942C57.0772 145.604 44.8893 145.604 35.3737 144.325C25.6223 143.014 17.8855 140.272 11.8066 134.194C5.72773 128.115 2.98624 120.378 1.6752 110.627C0.395829 101.111 0.395903 88.9225 0.395998 73.405V73.405L0.395998 72.595V72.595C0.395903 57.0775 0.395829 44.8894 1.6752 35.3735C2.98624 25.6222 5.72773 17.8854 11.8066 11.8065C17.8855 5.72757 25.6223 2.98607 35.3737 1.67503C44.8895 0.39566 57.0777 0.395737 72.5952 0.395828H73.4052ZM104.875 73C104.875 90.6041 90.6042 104.875 73.0002 104.875C55.3961 104.875 41.1252 90.6041 41.1252 73C41.1252 55.3959 55.3961 41.125 73.0002 41.125C90.6042 41.125 104.875 55.3959 104.875 73ZM112.046 41.125C115.94 41.125 119.097 37.9537 119.097 34.0417C119.097 30.1296 115.94 26.9583 112.046 26.9583H111.982C108.088 26.9583 104.931 30.1296 104.931 34.0417C104.931 37.9537 108.088 41.125 111.982 41.125H112.046Z"
        fill="#70666c" />
</svg>
    