<svg width="170" height="170" viewBox="0 0 170 170" fill="none" xmlns="http://www.w3.org/2000/svg">
    <path
        d="M47.5835 63.75H19.7085C18.7657 63.75 18.2943 63.75 18.0014 64.0429C17.7085 64.3358 17.7085 64.8072 17.7085 65.75V150.292C17.7085 151.234 17.7085 151.706 18.0014 151.999C18.2943 152.292 18.7657 152.292 19.7085 152.292H47.5835C48.5263 152.292 48.9977 152.292 49.2906 151.999C49.5835 151.706 49.5835 151.234 49.5835 150.292V65.75C49.5835 64.8072 49.5835 64.3358 49.2906 64.0429C48.9977 63.75 48.5263 63.75 47.5835 63.75Z"
        fill="#70666c" />
    <path
        d="M49.5835 33.6458C49.5835 42.4479 42.448 49.5833 33.646 49.5833C24.844 49.5833 17.7085 42.4479 17.7085 33.6458C17.7085 24.8438 24.844 17.7083 33.646 17.7083C42.448 17.7083 49.5835 24.8438 49.5835 33.6458Z"
        fill="#70666c" />
    <path
        d="M83.7678 63.75H77.9167C71.2384 63.75 67.8993 63.75 65.8247 65.8247C63.75 67.8993 63.75 71.2384 63.75 77.9167V138.125C63.75 144.803 63.75 148.142 65.8247 150.217C67.8993 152.292 71.2384 152.292 77.9167 152.292H81.4585C88.1366 152.292 91.4757 152.292 93.5504 150.217C95.625 148.142 95.6251 144.803 95.6251 138.125L95.6254 113.334C95.6254 101.598 99.3658 92.0842 110.414 92.0842C115.938 92.0842 120.416 96.8412 120.416 102.709V134.584C120.416 141.262 120.416 144.602 122.491 146.676C124.566 148.751 127.905 148.751 134.583 148.751H138.116C144.793 148.751 148.131 148.751 150.206 146.677C152.28 144.603 152.281 141.264 152.283 134.588L152.292 95.6267C152.292 78.0226 135.549 63.7517 118.977 63.7517C109.543 63.7517 101.126 68.376 95.6254 75.6072C95.6252 71.1446 95.6252 68.9133 94.6556 67.2562C94.0417 66.207 93.1681 65.3334 92.1188 64.7195C90.4617 63.75 88.2304 63.75 83.7678 63.75Z"
        fill="#70666c" />
</svg>
    