<svg width="122" height="122" viewBox="0 0 122 122" fill="none" xmlns="http://www.w3.org/2000/svg">
    <path
        d="M0.730628 3.3827C1.77242 1.34521 3.86789 0.0631409 6.15627 0.0631409L36.625 0.0631409C38.5817 0.0631409 40.4194 1.00278 41.5651 2.58906L70.5964 42.7863L111.535 1.84796C113.915 -0.531799 117.773 -0.531799 120.153 1.84796C122.532 4.22772 122.532 8.08607 120.153 10.4658L77.8243 52.7942L120.784 112.277C122.124 114.132 122.311 116.581 121.269 118.619C120.228 120.656 118.132 121.938 115.844 121.938L85.375 121.938C83.4183 121.938 81.5806 120.998 80.4349 119.412L51.4036 79.2149L10.4652 120.153C8.08545 122.533 4.2271 122.533 1.84734 120.153C-0.532414 117.774 -0.532414 113.915 1.84734 111.535L44.1757 69.2071L1.2162 9.72472C-0.123627 7.86958 -0.311162 5.42018 0.730628 3.3827Z"
        fill="#EDEDED" />
</svg>
    